<svg xmlns="http://www.w3.org/2000/svg" viewBox="0 0 520 200" width="520" height="200">
  <defs>
    <radialGradient id="globeGradD" cx="42%" cy="38%" r="58%">
      <stop offset="0%"   stop-color="#7ed62a"/>
      <stop offset="45%"  stop-color="#4db81a"/>
      <stop offset="100%" stop-color="#2a7a0a"/>
    </radialGradient>
    <radialGradient id="orangeGradD" cx="60%" cy="35%" r="55%">
      <stop offset="0%"   stop-color="#ffaa33"/>
      <stop offset="50%"  stop-color="#e86800"/>
      <stop offset="100%" stop-color="#b84e00"/>
    </radialGradient>
    <linearGradient id="brushGradD" x1="0%" y1="0%" x2="100%" y2="100%">
      <stop offset="0%"   stop-color="#ffcc55"/>
      <stop offset="100%" stop-color="#cc5500"/>
    </linearGradient>
    <filter id="glowD" x="-20%" y="-20%" width="140%" height="140%">
      <feGaussianBlur stdDeviation="5" result="blur"/>
      <feMerge><feMergeNode in="blur"/><feMergeNode in="SourceGraphic"/></feMerge>
    </filter>
    <clipPath id="globeClipD">
      <circle cx="96" cy="88" r="72"/>
    </clipPath>
  </defs>

  <!-- Dark background -->
  <rect width="520" height="200" rx="12" fill="#0d1a0a"/>

  <g filter="url(#glowD)">
    <circle cx="96" cy="88" r="72" fill="url(#globeGradD)"/>
    <g clip-path="url(#globeClipD)" fill="none" stroke="rgba(255,255,255,0.20)" stroke-width="1.3">
      <ellipse cx="96" cy="88" rx="72" ry="20"/>
      <ellipse cx="96" cy="65" rx="56" ry="13"/>
      <ellipse cx="96" cy="111" rx="56" ry="13"/>
      <ellipse cx="96" cy="44" rx="32" ry="8"/>
      <ellipse cx="96" cy="132" rx="32" ry="8"/>
      <ellipse cx="96" cy="88" rx="26" ry="72"/>
      <ellipse cx="96" cy="88" rx="55" ry="72"/>
    </g>
    <path d="M96,16 A72,72,0,0,1,96,160 Z" fill="url(#orangeGradD)" opacity="0.92"/>
    <path d="M96,16 A72,72,0,0,1,96,160" fill="none" stroke="rgba(255,255,255,0.5)" stroke-width="1.8"/>
    <g fill="none" stroke="rgba(255,255,255,0.75)" stroke-width="1.5" stroke-linecap="round">
      <circle cx="62" cy="68" r="4.5" fill="rgba(255,255,255,0.9)" stroke="none"/>
      <line x1="66" y1="68" x2="82" y2="68"/>
      <circle cx="62" cy="88" r="4.5" fill="rgba(255,255,255,0.9)" stroke="none"/>
      <line x1="66" y1="88" x2="85" y2="88"/>
      <circle cx="62" cy="108" r="4.5" fill="rgba(255,255,255,0.9)" stroke="none"/>
      <line x1="66" y1="108" x2="82" y2="104"/>
      <line x1="62" y1="72" x2="62" y2="84"/>
      <line x1="62" y1="92" x2="62" y2="104"/>
      <line x1="74" y1="68" x2="74" y2="78"/>
      <circle cx="74" cy="78" r="3" fill="rgba(255,255,255,0.75)" stroke="none"/>
    </g>
    <rect x="100" y="55" width="9" height="48" rx="4" fill="#8B3A00" transform="rotate(30,104,79)"/>
    <rect x="100" y="76" width="9" height="7" rx="1" fill="#d4a030" transform="rotate(30,104,79)"/>
    <ellipse cx="104" cy="55" rx="9" ry="16" fill="url(#brushGradD)" transform="rotate(30,104,79)" opacity="0.95"/>
    <ellipse cx="101" cy="51" rx="3" ry="9" fill="rgba(255,220,100,0.55)" transform="rotate(30,104,79)"/>
    <circle cx="125" cy="70" r="5.5" fill="#ff3333" opacity="0.9"/>
    <circle cx="136" cy="82" r="5.5" fill="#5588ff" opacity="0.9"/>
    <circle cx="128" cy="96" r="5.5" fill="#ffee00" opacity="0.9"/>
    <circle cx="142" cy="66" r="4"   fill="#ffffff"  opacity="0.7"/>
    <circle cx="96"  cy="88" r="72"  fill="none" stroke="rgba(255,255,255,0.25)" stroke-width="1.5"/>
    <ellipse cx="96" cy="163" rx="56" ry="7" fill="rgba(0,0,0,0.3)"/>
  </g>

  <!-- Wordmark on dark -->
  <text x="186" y="76"  font-family="Georgia,serif" font-size="54" font-weight="700" letter-spacing="-1" fill="#5dd63b">AI</text>
  <text x="238" y="76"  font-family="Georgia,serif" font-size="54" font-weight="700" letter-spacing="-1" fill="#e8f0e4">World</text>
  <text x="186" y="134" font-family="Georgia,serif" font-size="54" font-weight="700" letter-spacing="-1" fill="#ff8c2a">Gallery</text>
  <text x="456" y="108" font-family="Georgia,serif" font-size="19" font-weight="400" fill="#5a7a5a" letter-spacing="0.5">.com</text>
  <text x="187" y="158" font-family="Georgia,serif" font-size="13" font-style="italic" letter-spacing="2.5" fill="#4a7a3a">Where AI Art Meets the World</text>

</svg>
